<svg width="100%" height="100%" viewBox="0 0 1282 289" version="1.1" xmlns="http://www.w3.org/2000/svg" xmlns:xlink="http://www.w3.org/1999/xlink" xml:space="preserve" xmlns:serif="http://www.serif.com/" style="fill-rule:evenodd;clip-rule:evenodd;stroke-linejoin:round;stroke-miterlimit:2;">
    <g transform="matrix(0.862887,0,0,0.773146,-128.048,-96.6014)">
        <path d="M450.56,250.24C450.56,249.747 450.347,249.62 449.92,249.86L361.51,299.45C361.285,299.58 361.171,299.841 361.23,300.09C362.37,304.77 362.863,309.493 362.71,314.26C362.16,331.51 352.76,346.82 338.07,355.79C323.25,364.84 304.42,365.36 289.13,357.13C262.77,342.94 254.21,309.6 270.71,284.74C280.71,269.68 297.77,261.12 315.95,262.37C327.783,263.183 338.343,267.933 347.63,276.62C347.963,276.933 348.33,276.977 348.73,276.75C383.277,257.197 418.007,237.78 452.92,218.5C456.82,216.347 459.663,215.12 461.45,214.82C467.3,213.84 473.36,217.24 475.67,222.86C476.27,224.32 476.57,226.65 476.57,229.85C476.61,326.917 476.597,383.633 476.53,400C476.517,402.86 475.667,405.38 473.98,407.56C472.94,408.9 470.92,410.44 467.92,412.18C387.44,458.813 337.687,487.56 318.66,498.42C316.1,499.873 313.413,500.347 310.6,499.84C309.033,499.553 306.66,498.493 303.48,496.66C216.153,446.347 166.507,417.7 154.54,410.72C152.127,409.313 150.417,407.303 149.41,404.69C148.81,403.137 148.507,400.637 148.5,397.19C148.36,303.197 148.36,245.717 148.5,224.75C148.527,221.703 149.523,219.083 151.49,216.89C152.497,215.777 154.68,214.247 158.04,212.3C207.673,183.58 257.347,154.92 307.06,126.32C309.393,124.98 311.983,124.62 314.83,125.24C316.297,125.553 318.557,126.587 321.61,128.34C352.817,146.253 389.263,167.257 430.95,191.35C434.363,193.33 436.643,195.077 437.79,196.59C444.89,205.96 436.36,219.38 425.03,217.13C423.603,216.843 421.5,215.9 418.72,214.3C383.387,193.94 348.097,173.613 312.85,153.32C312.646,153.197 312.388,153.197 312.18,153.32L174.86,232.6C174.58,232.76 174.44,233.007 174.44,233.34L174.44,391.96C174.44,392.113 174.52,392.255 174.65,392.33L311.88,471.56C312.34,471.827 312.8,471.827 313.26,471.56L450.31,392.44C450.465,392.346 450.56,392.179 450.56,392L450.56,250.24ZM336.81,312.62C336.81,299.278 325.832,288.3 312.49,288.3C299.148,288.3 288.17,299.278 288.17,312.62C288.17,325.962 299.148,336.94 312.49,336.94C325.832,336.94 336.81,325.962 336.81,312.62Z" style="fill:white;fill-rule:nonzero;"></path>
    </g>
    <g transform="matrix(2.2446,0,0,1.17742,-446.525,-20.371)">
        <path d="M396.028,136.205L392.998,128.562L375.712,83.888C374.999,82.019 373.93,81 372.772,81C369.742,81 367.96,87.625 369.742,92.211L388.454,140.452L369.742,188.693C367.96,193.279 369.742,199.904 372.772,199.904C373.93,199.904 374.999,198.885 375.712,197.016L392.998,152.342L396.028,144.699C397.008,142.151 397.008,138.753 396.028,136.205ZM426.501,188.693L407.878,140.452L426.501,92.211C428.283,87.625 426.59,81 423.471,81C422.313,81 421.244,82.019 420.531,83.888L403.245,128.562L400.215,136.205C399.235,138.753 399.235,142.151 400.215,144.699L403.245,152.342L420.531,197.016C421.244,198.885 422.313,199.904 423.471,199.904C426.59,199.904 428.283,193.279 426.501,188.693Z" style="fill:white;fill-rule:nonzero;"></path>
        <path d="M483.704,166.611L483.615,166.611C482.457,166.611 481.388,167.63 480.675,169.499C476.309,180.54 469.537,187.674 461.963,187.674C448.865,187.674 438.173,166.441 438.173,140.452C438.173,114.463 448.865,93.4 461.963,93.4C469.537,93.4 476.398,100.364 480.675,111.405C481.388,113.274 482.546,114.293 483.704,114.293C486.734,114.293 488.427,107.668 486.645,102.912C480.942,88.474 471.943,79.301 461.963,79.301C444.767,79.301 430.778,106.649 430.778,140.452C430.778,174.255 444.767,201.603 461.963,201.603C471.943,201.603 480.853,192.43 486.645,177.992C488.427,173.236 486.734,166.611 483.704,166.611Z" style="fill:white;fill-rule:nonzero;"></path>
        <path d="M525.672,79.301C508.475,79.301 494.486,106.649 494.486,140.452C494.486,174.255 508.475,201.603 525.672,201.603C542.869,201.603 556.858,174.255 556.858,140.452C556.858,106.649 542.869,79.301 525.672,79.301ZM525.672,187.504C512.574,187.504 501.881,166.441 501.881,140.452C501.881,114.463 512.574,93.4 525.672,93.4C538.77,93.4 549.462,114.463 549.462,140.452C549.462,166.441 538.77,187.504 525.672,187.504Z" style="fill:white;fill-rule:nonzero;"></path>
        <path d="M625.021,79.301C607.824,79.301 593.835,106.649 593.835,140.452C593.835,174.255 607.824,201.603 625.021,201.603C642.218,201.603 656.207,174.255 656.207,140.452C656.207,106.649 642.218,79.301 625.021,79.301ZM625.021,187.504C611.923,187.504 601.231,166.441 601.231,140.452C601.231,114.463 611.923,93.4 625.021,93.4C638.119,93.4 648.812,114.463 648.812,140.452C648.812,166.441 638.119,187.504 625.021,187.504Z" style="fill:white;fill-rule:nonzero;"></path>
        <path d="M713.233,81C711.362,81.34 709.936,84.737 709.936,88.304L709.936,177.142L687.215,115.142C686.591,113.274 685.433,112.085 684.274,112.085C681.601,112.255 679.997,118.03 681.512,122.277L708.51,195.997C709.401,198.375 710.827,199.904 712.431,199.904C715.104,199.904 717.331,195.827 717.331,190.732L717.331,87.964C717.331,83.888 715.46,80.66 713.233,81ZM670.998,81C669.038,81 667.345,84.227 667.345,87.964L667.345,192.94C667.345,196.677 669.038,199.904 670.998,199.904C673.047,199.904 674.74,196.677 674.74,192.94L674.74,87.964C674.74,84.227 673.047,81 670.998,81Z" style="fill:white;fill-rule:nonzero;"></path>
        <path d="M732.835,95.099L764.556,95.099C766.605,95.099 768.298,91.871 768.298,87.964C768.298,84.227 766.605,81 764.556,81L732.835,81C730.875,81 729.182,84.227 729.182,87.964C729.182,91.871 730.875,95.099 732.835,95.099ZM764.556,185.805L736.578,185.805L736.578,145.208L759.744,145.208C761.794,145.208 763.487,142.151 763.487,138.244C763.487,134.337 761.794,131.11 759.744,131.11L732.835,131.11C730.875,131.11 729.182,134.337 729.182,138.244L729.182,192.94C729.182,196.677 730.875,199.904 732.835,199.904L764.556,199.904C766.605,199.904 768.298,196.677 768.298,192.94C768.298,189.033 766.605,185.805 764.556,185.805Z" style="fill:white;fill-rule:nonzero;"></path>
    </g>
</svg>