<svg width="111" height="50" viewBox="0 0 111 50" fill="none" xmlns="http://www.w3.org/2000/svg">
<rect y="10.375" width="5.15891" height="27.826" rx="0.838724" fill="#37A6F7"/>
<rect x="16.6953" y="10.375" width="4.29909" height="9.37454" rx="0.838724" fill="black"/>
<rect x="16.6914" y="22.0586" width="4.29909" height="16.145" rx="0.838724" fill="black"/>
<rect x="7.23633" y="26.5234" width="4.46407" height="13.7571" rx="0.838724" transform="rotate(-90 7.23633 26.5234)" fill="black"/>
<path d="M36.3992 38.3685C34.4424 38.3685 32.6613 37.9169 31.0557 37.0138C29.4752 36.1107 28.2209 34.894 27.2927 33.3637C26.3645 31.8334 25.9004 30.115 25.9004 28.2084C25.9004 26.3018 26.3394 24.5833 27.2174 23.0531C28.1206 21.5228 29.3373 20.3061 30.8676 19.4029C32.3978 18.4998 34.1037 18.0483 35.9852 18.0483C37.8667 18.0483 39.535 18.5124 40.99 19.4406C42.4451 20.3688 43.5865 21.6231 44.4144 23.2036C45.2673 24.784 45.6938 26.5777 45.6938 28.5847V29.9394H31.1686C31.3944 30.717 31.7581 31.4195 32.2599 32.0466C32.7867 32.6738 33.4264 33.163 34.179 33.5142C34.9567 33.8654 35.7845 34.041 36.6626 34.041C37.5406 34.041 38.3434 33.9031 39.0709 33.6271C39.8235 33.3511 40.4632 32.9623 40.99 32.4606L44.3767 35.5462C43.1726 36.5246 41.9308 37.2396 40.6514 37.6911C39.397 38.1427 37.9796 38.3685 36.3992 38.3685ZM31.0933 26.2516H40.6137C40.4381 25.4739 40.112 24.7966 39.6354 24.2196C39.1838 23.6175 38.6319 23.1534 37.9796 22.8273C37.3525 22.4761 36.65 22.3005 35.8724 22.3005C35.0696 22.3005 34.3421 22.4635 33.6898 22.7896C33.0376 23.1158 32.4856 23.5799 32.0341 24.182C31.6076 24.759 31.294 25.4488 31.0933 26.2516ZM53.7841 37.9922H48.7312V10.4862H53.7841V37.9922ZM67.4912 37.9922C66.2785 37.9922 65.1393 37.7656 64.0736 37.3123C63.0079 36.8469 62.0708 36.216 61.2623 35.4198C60.4661 34.6114 59.8353 33.6743 59.3698 32.6086C58.9166 31.5429 58.69 30.4037 58.69 29.191V23.3481H56.2462V18.3503H58.69V10.4862H63.6877V18.3503H71.2946V23.3481H63.6877V29.191C63.6877 29.7177 63.7857 30.2138 63.9817 30.6793C64.1777 31.1325 64.4472 31.5306 64.7902 31.8736C65.1331 32.2166 65.5374 32.4922 66.0029 32.7005C66.4683 32.8965 66.9644 32.9944 67.4912 32.9944H71.2946V37.9922H67.4912ZM93.1781 37.9922H91.9654L90.0177 35.2912C89.54 35.7199 89.0317 36.1242 88.4927 36.5039C87.966 36.8714 87.4086 37.196 86.8207 37.4777C86.2327 37.7472 85.6263 37.9616 85.0016 38.1208C84.3892 38.28 83.7644 38.3597 83.1275 38.3597C81.7433 38.3597 80.4387 38.1269 79.2138 37.6615C78.0011 37.196 76.9354 36.5223 76.0167 35.6403C75.1103 34.7461 74.3937 33.6559 73.8669 32.3697C73.3402 31.0835 73.0769 29.6197 73.0769 27.9783C73.0769 26.4472 73.3402 25.0446 73.8669 23.7707C74.3937 22.4845 75.1103 21.382 76.0167 20.4633C76.9354 19.5446 78.0011 18.8342 79.2138 18.332C80.4387 17.8175 81.7433 17.5602 83.1275 17.5602C83.7644 17.5602 84.3953 17.6399 85.02 17.7991C85.6447 17.9583 86.2511 18.1788 86.839 18.4606C87.427 18.7423 87.9843 19.073 88.5111 19.4528C89.05 19.8325 89.5523 20.2429 90.0177 20.6838L91.9654 18.3503H93.1781V37.9922ZM88.1252 27.9783C88.1252 27.2924 87.9905 26.6309 87.721 25.9939C87.4637 25.3447 87.1085 24.7751 86.6553 24.2851C86.2021 23.7829 85.6692 23.3848 85.0567 23.0908C84.4565 22.7846 83.8134 22.6315 83.1275 22.6315C82.4415 22.6315 81.7923 22.7479 81.1798 22.9806C80.5796 23.2133 80.0529 23.5563 79.5997 24.0095C79.1587 24.4628 78.8096 25.0262 78.5523 25.6999C78.2951 26.3614 78.1665 27.1209 78.1665 27.9783C78.1665 28.8358 78.2951 29.6014 78.5523 30.2751C78.8096 30.9366 79.1587 31.4939 79.5997 31.9471C80.0529 32.4004 80.5796 32.7433 81.1798 32.9761C81.7923 33.2088 82.4415 33.3252 83.1275 33.3252C83.8134 33.3252 84.4565 33.1782 85.0567 32.8842C85.6692 32.578 86.2021 32.1799 86.6553 31.6899C87.1085 31.1877 87.4637 30.6181 87.721 29.9811C87.9905 29.3319 88.1252 28.6643 88.1252 27.9783ZM102.034 37.9922H97.0182V18.3136H98.2309L99.8846 20.6471C100.693 19.9121 101.612 19.3487 102.641 18.9567C103.67 18.5524 104.735 18.3503 105.838 18.3503H110.266V23.3481H105.838C105.311 23.3481 104.815 23.4461 104.349 23.6421C103.884 23.838 103.48 24.1075 103.137 24.4505C102.794 24.7935 102.524 25.1977 102.328 25.6632C102.132 26.1287 102.034 26.6248 102.034 27.1515V37.9922Z" fill="black"/>
</svg>
