<svg version="1.1" id="Layer_1" xmlns="http://www.w3.org/2000/svg" xmlns:xlink="http://www.w3.org/1999/xlink" x="0px" y="0px"
	 width="100%" viewBox="0 0 389 129" enable-background="new 0 0 389 129" xml:space="preserve">
<path fill="#FDFDFE" opacity="1.000000" stroke="none" 
	d="
M273.000000,130.000000 
	C182.000015,130.000000 91.500046,130.000000 1.000049,130.000000 
	C1.000032,87.000031 1.000032,44.000065 1.000016,1.000072 
	C130.666611,1.000048 260.333221,1.000048 389.999878,1.000024 
	C389.999908,43.999928 389.999908,86.999855 389.999939,129.999893 
	C351.166656,130.000000 312.333344,130.000000 273.000000,130.000000 
M69.015244,57.510300 
	C69.015244,57.510300 68.873466,57.037216 69.018745,56.113861 
	C68.982513,51.761047 68.946289,47.408234 69.034729,42.118172 
	C69.042366,34.817402 69.093994,27.516325 69.042992,20.215965 
	C69.005737,14.884271 67.146965,12.988088 61.944099,12.887972 
	C58.294964,12.817756 54.642815,12.832506 50.993046,12.883389 
	C45.412346,12.961193 43.370335,14.974217 43.851986,20.479385 
	C44.400101,26.744114 45.314850,32.976765 45.425522,38.958595 
	C40.957787,34.072929 36.557968,29.122807 32.001133,24.321711 
	C28.261353,20.381468 25.343351,20.390106 21.377277,24.149910 
	C18.973118,26.429033 16.631592,28.776794 14.318640,31.149015 
	C9.816936,35.766075 10.099291,38.794811 15.034333,43.140579 
	C19.350563,46.941429 23.477091,50.957710 26.905458,54.771297 
	C24.095387,54.512886 21.289671,54.171394 18.473791,54.023766 
	C16.419624,53.916077 14.166124,54.615902 12.324848,53.995720 
	C6.467449,52.022808 2.476645,54.455673 2.237918,60.690029 
	C2.104311,64.179184 2.120425,67.680626 2.233983,71.171173 
	C2.414924,76.732956 5.472401,79.165268 11.001492,78.559204 
	C16.352646,77.972656 21.726263,77.591003 28.575623,76.988724 
	C23.083252,81.717972 18.655632,85.393570 14.386571,89.244919 
	C10.140640,93.075401 10.051126,96.275459 13.916491,100.303017 
	C16.219646,102.702805 18.583656,105.050079 21.014196,107.320442 
	C25.409189,111.425789 28.459650,111.398132 32.494316,107.030960 
	C37.005421,102.148087 41.348137,97.109657 45.922245,92.971596 
	C45.210190,99.218925 44.347332,105.453896 43.834427,111.717537 
	C43.433681,116.611473 45.583317,118.870422 50.369564,118.996544 
	C54.347988,119.101379 58.331535,118.996170 62.312592,119.020554 
	C66.828423,119.048203 69.062447,116.795052 69.043076,112.317368 
	C69.009354,104.523689 68.939240,96.730179 69.024017,88.023911 
	C68.974396,83.663712 68.924774,79.303520 69.024231,74.048622 
	C68.980431,70.702316 68.936623,67.356003 69.063904,63.162331 
	C69.009911,61.438553 68.955917,59.714779 69.015244,57.510300 
M387.567505,71.002075 
	C387.676270,70.671959 387.785065,70.341843 388.049133,69.119354 
	C387.994751,66.405869 387.940369,63.692383 387.935547,60.387844 
	C387.619965,60.245445 387.304382,60.103046 386.074097,59.745647 
	C376.522034,59.745647 366.969971,59.745647 357.458618,59.745647 
	C357.458618,54.750481 357.458618,50.506199 357.458618,45.905678 
	C364.840912,45.905678 371.946289,45.989967 379.048065,45.865932 
	C382.066132,45.813217 385.076538,45.324089 388.469574,44.170837 
	C388.469574,41.042389 388.469574,37.913937 388.469574,34.540897 
	C373.488953,34.540897 358.934418,34.540897 343.917572,34.540897 
	C343.917572,54.963909 343.900391,75.208054 344.006775,95.451538 
	C344.009735,96.014885 345.336121,96.571289 346.942780,97.405434 
	C360.286591,97.316811 373.630402,97.228195 387.784058,97.158577 
	C387.942932,94.724823 388.101807,92.291061 388.557861,89.289322 
	C388.458649,88.886345 388.359406,88.483376 388.452911,87.494408 
	C388.382385,87.301247 388.311890,87.108086 387.822784,86.110458 
	C377.774292,86.110458 367.725769,86.110458 356.818390,86.110458 
	C357.253815,80.583168 357.632935,75.770775 358.940704,71.081154 
	C368.294098,71.027534 377.647491,70.973907 387.567505,71.002075 
M238.357147,36.272511 
	C238.357147,36.272511 238.325516,36.309914 238.107040,37.181541 
	C238.087723,48.993931 238.218491,60.809105 237.999786,72.617798 
	C237.836029,81.459953 230.900818,87.810280 222.151489,87.617653 
	C215.305008,87.466919 209.158859,80.715691 208.860886,72.805260 
	C208.691925,68.319328 208.800171,63.822670 208.797028,59.330837 
	C208.791229,51.076263 208.795380,42.821682 208.795380,34.425377 
	C203.920166,34.425377 199.667923,34.425377 194.922501,34.425377 
	C194.922501,46.400539 194.908600,58.164959 194.925705,69.929337 
	C194.952362,88.256569 202.709290,97.160797 220.832977,98.581360 
	C234.230591,99.631485 248.472824,94.639824 251.062607,78.503723 
	C251.028992,78.338753 250.995392,78.173775 251.223114,77.318169 
	C251.247406,76.591888 251.271683,75.865616 251.646088,74.378967 
	C251.646088,61.133850 251.646088,47.888729 251.646088,34.518276 
	C247.264191,34.518276 243.154877,34.518276 238.549850,34.373837 
	C238.473618,34.996281 238.397385,35.618729 238.357147,36.272511 
M285.115143,42.910603 
	C285.115143,42.910603 285.325684,42.792492 285.244232,42.028015 
	C283.625793,39.406898 282.374298,34.931927 280.317596,34.524811 
	C274.925781,33.457527 269.182678,34.164673 263.377289,34.164673 
	C263.377289,55.504864 263.377289,76.240410 263.377289,97.553177 
	C266.691956,97.553177 269.823975,97.704727 272.929077,97.481445 
	C274.241394,97.387077 275.496948,96.503822 276.885468,95.050179 
	C276.817505,81.707275 276.749573,68.364372 277.075928,54.501945 
	C278.380981,57.002357 279.686005,59.502773 281.056702,62.740479 
	C285.136475,73.102753 289.131989,83.499893 293.389557,93.788589 
	C294.006805,95.280289 295.982513,97.323402 297.147369,97.211647 
	C298.856995,97.047623 301.241974,95.518494 301.883728,93.968430 
	C306.647095,82.463158 311.040131,70.804825 315.576721,59.205212 
	C316.302521,57.349369 317.164307,55.546707 317.963226,53.719460 
	C318.265717,53.837807 318.568176,53.956154 318.870667,54.074501 
	C318.870667,68.039635 318.870667,82.004768 318.822418,96.682236 
	C319.228607,96.837425 319.634766,96.992607 320.912903,97.402496 
	C323.929626,97.313652 326.946350,97.224815 330.678528,97.336914 
	C331.093018,96.894310 331.507477,96.451714 332.086365,95.083244 
	C332.050446,75.390175 332.014526,55.697113 332.055115,35.141846 
	C327.151886,34.807777 322.224579,34.671333 317.353119,34.076786 
	C313.492004,33.605549 311.977753,35.396259 311.090424,39.338501 
	C306.735474,50.534161 302.380524,61.729824 297.720947,73.708641 
	C293.819885,63.842361 290.296753,54.931854 286.721619,45.403954 
	C286.244904,44.517876 285.768188,43.631802 285.115143,42.910603 
M138.362747,75.561165 
	C137.034836,70.140068 133.259750,66.942268 128.071106,64.861130 
	C135.613388,61.201256 138.882645,55.556362 137.907349,48.368732 
	C136.961563,41.398598 132.107590,35.883690 124.532494,34.988991 
	C116.967033,34.095436 109.258392,34.371548 101.610756,34.231285 
	C96.518845,34.137897 91.423828,34.213558 86.307343,34.213558 
	C86.307343,55.609543 86.307343,76.241470 86.307343,96.893799 
	C86.887932,97.095558 87.349487,97.394501 87.812294,97.396477 
	C98.807510,97.443336 109.803650,97.550171 120.797974,97.455215 
	C133.856781,97.342445 140.434540,89.487801 138.362747,75.561165 
M148.397263,47.513920 
	C148.397263,63.968464 148.397263,80.423004 148.397263,97.143166 
	C162.077805,97.143166 175.435150,97.143166 188.702362,97.143166 
	C188.702362,93.197319 188.702362,89.602119 188.702362,85.559402 
	C179.685852,85.559402 170.941406,85.559402 161.704468,85.559402 
	C161.704468,68.214081 161.704468,51.322411 161.704468,34.435078 
	C157.085968,34.435078 152.984543,34.435078 148.397385,34.435078 
	C148.397385,38.605839 148.397385,42.563259 148.397263,47.513920 
z"/>
<path fill="#16325B" opacity="1.000000" stroke="none" 
	d="
M276.681641,55.021469 
	C276.749573,68.364372 276.817505,81.707275 276.383240,95.529144 
	C273.386932,96.017517 270.828033,96.363457 268.424835,95.900795 
	C267.136078,95.652687 265.131012,94.025093 265.119446,93.001129 
	C264.916595,75.044823 264.924774,57.085148 265.091614,39.128109 
	C265.101440,38.069389 266.874847,36.093643 267.769928,36.126270 
	C274.136566,36.358334 282.042084,33.007298 284.871948,42.619858 
	C284.899597,42.713795 285.169098,42.736523 285.325684,42.792492 
	C285.325684,42.792492 285.115143,42.910603 285.120544,43.177620 
	C285.675171,44.303535 286.224396,45.162437 286.773621,46.021347 
	C290.296753,54.931854 293.819885,63.842361 297.720947,73.708641 
	C302.380524,61.729824 306.735474,50.534161 311.686157,38.956291 
	C314.075806,37.693878 315.824677,36.188717 317.672455,36.055576 
	C322.417755,35.713642 327.206970,35.980522 331.978607,36.004047 
	C332.014526,55.697113 332.050446,75.390175 331.700073,95.568398 
	C330.863556,96.414360 330.413300,96.775162 329.963074,97.135971 
	C326.946350,97.224815 323.929626,97.313652 320.352997,97.015404 
	C319.485596,96.408844 319.178131,96.189377 318.870667,95.969910 
	C318.870667,82.004768 318.870667,68.039635 318.870667,54.074501 
	C318.568176,53.956154 318.265717,53.837807 317.963226,53.719460 
	C317.164307,55.546707 316.302521,57.349369 315.576721,59.205212 
	C311.040131,70.804825 306.647095,82.463158 301.883728,93.968430 
	C301.241974,95.518494 298.856995,97.047623 297.147369,97.211647 
	C295.982513,97.323402 294.006805,95.280289 293.389557,93.788589 
	C289.131989,83.499893 285.136475,73.102753 281.261627,62.154240 
	C280.508179,58.845459 279.664062,56.071709 278.487457,53.447010 
	C278.272583,52.967701 276.702698,53.095818 275.758331,52.943535 
	C276.066101,53.636181 276.373871,54.328823 276.681641,55.021469 
z"/>
<path fill="#18345D" opacity="1.000000" stroke="none" 
	d="
M138.528809,75.941010 
	C140.434540,89.487801 133.856781,97.342445 120.797974,97.455215 
	C109.803650,97.550171 98.807510,97.443336 87.812294,97.396477 
	C87.349487,97.394501 86.887932,97.095558 86.307343,96.893799 
	C86.307343,76.241470 86.307343,55.609543 86.307343,34.213558 
	C91.423828,34.213558 96.518845,34.137897 101.610756,34.231285 
	C109.258392,34.371548 116.967033,34.095436 124.532494,34.988991 
	C132.107590,35.883690 136.961563,41.398598 137.907349,48.368732 
	C138.882645,55.556362 135.613388,61.201256 128.071106,64.861130 
	C133.259750,66.942268 137.034836,70.140068 138.528809,75.941010 
M106.577789,71.110329 
	C104.470688,71.110329 102.363594,71.110329 100.202576,71.110329 
	C100.202576,76.369682 100.202576,81.058144 100.202576,85.985794 
	C106.188622,85.985794 111.816353,86.064743 117.440758,85.962097 
	C122.400337,85.871582 125.223488,83.257881 125.346680,78.921623 
	C125.471008,74.544899 122.802406,71.558357 118.006561,71.194542 
	C114.539352,70.931519 111.037735,71.122078 106.577789,71.110329 
M100.644821,45.947350 
	C100.295540,50.770020 99.946251,55.592686 99.563118,60.882637 
	C105.827026,60.882637 111.127251,61.067135 116.407890,60.824806 
	C120.704163,60.627647 124.314056,56.302284 124.074623,52.206028 
	C123.840294,48.196945 121.118523,45.922016 116.116333,45.817886 
	C111.285866,45.717339 106.451431,45.807182 100.644821,45.947350 
z"/>
<path fill="#1A355E" opacity="1.000000" stroke="none" 
	d="
M250.894470,78.979988 
	C248.472824,94.639824 234.230591,99.631485 220.832977,98.581360 
	C202.709290,97.160797 194.952362,88.256569 194.925705,69.929337 
	C194.908600,58.164959 194.922501,46.400539 194.922501,34.425377 
	C199.667923,34.425377 203.920166,34.425377 208.795380,34.425377 
	C208.795380,42.821682 208.791229,51.076263 208.797028,59.330837 
	C208.800171,63.822670 208.691925,68.319328 208.860886,72.805260 
	C209.158859,80.715691 215.305008,87.466919 222.151489,87.617653 
	C230.900818,87.810280 237.836029,81.459953 237.999786,72.617798 
	C238.218491,60.809105 238.087723,48.993931 238.721161,36.667130 
	C240.993607,36.104683 242.677582,36.224873 244.305389,35.976669 
	C248.952515,35.268078 250.254379,37.200211 250.092804,41.750576 
	C249.757263,51.200462 249.928726,60.671383 250.050201,70.131622 
	C250.071701,71.805916 250.861160,73.470352 251.295959,75.139336 
	C251.271683,75.865616 251.247406,76.591888 250.928955,77.743774 
	C250.565887,78.267944 250.417130,78.419594 250.441483,78.456215 
	C250.568222,78.646927 250.739014,78.808365 250.894470,78.979988 
z"/>
<path fill="#17335C" opacity="1.000000" stroke="none" 
	d="
M388.090424,45.033298 
	C385.076538,45.324089 382.066132,45.813217 379.048065,45.865932 
	C371.946289,45.989967 364.840912,45.905678 357.458618,45.905678 
	C357.458618,50.506199 357.458618,54.750481 357.458618,59.745647 
	C366.969971,59.745647 376.522034,59.745647 386.619171,60.072769 
	C387.324219,60.693371 387.564789,60.886372 387.886017,60.978897 
	C387.940369,63.692383 387.994751,66.405869 387.746887,69.555130 
	C387.444641,69.990913 386.994232,69.995369 386.525940,69.995300 
	C380.256653,69.995712 374.452637,69.883446 368.655792,70.038353 
	C365.102203,70.133324 361.559570,70.637794 358.012024,70.958374 
	C357.632935,75.770775 357.253815,80.583168 356.818390,86.110458 
	C367.725769,86.110458 377.774292,86.110458 387.838562,86.629044 
	C387.989624,87.458549 388.124908,87.769478 388.260162,88.080406 
	C388.359406,88.483376 388.458649,88.886345 388.081024,89.831467 
	C387.394196,92.628937 387.184204,94.884262 386.974213,97.139580 
	C373.630402,97.228195 360.286591,97.316811 346.332214,96.872688 
	C345.535675,95.877686 345.188782,95.416077 345.186920,94.953087 
	C345.112122,76.299271 345.095306,57.645191 344.993713,38.991566 
	C344.977325,35.979885 346.837646,35.979439 348.970703,35.984516 
	C358.799500,36.007915 368.628418,35.993839 378.457275,35.993572 
	C386.038452,35.993362 386.021210,35.996147 387.110962,43.387238 
	C387.197113,43.971363 387.752899,44.486240 388.090424,45.033298 
z"/>
<path fill="#6BA4C9" opacity="1.000000" stroke="none" 
	d="
M45.764137,92.138924 
	C41.348137,97.109657 37.005421,102.148087 32.494316,107.030960 
	C28.459650,111.398132 25.409189,111.425789 21.014196,107.320442 
	C18.583656,105.050079 16.219646,102.702805 13.916491,100.303017 
	C10.051126,96.275459 10.140640,93.075401 14.386571,89.244919 
	C18.655632,85.393570 23.083252,81.717972 28.575623,76.988724 
	C21.726263,77.591003 16.352646,77.972656 11.001492,78.559204 
	C5.472401,79.165268 2.414924,76.732956 2.233983,71.171173 
	C2.120425,67.680626 2.104311,64.179184 2.237918,60.690029 
	C2.476645,54.455673 6.467449,52.022808 12.324848,53.995720 
	C14.166124,54.615902 16.419624,53.916077 18.473791,54.023766 
	C21.289671,54.171394 24.095387,54.512886 27.641199,54.867279 
	C28.607214,54.983212 28.837488,55.003155 29.189384,55.330132 
	C33.164257,58.775944 37.017509,61.914722 40.912247,65.374268 
	C40.931419,66.125168 40.909103,66.555305 40.548828,67.015511 
	C36.625698,70.068298 33.040527,73.091011 29.674168,75.929237 
	C35.970963,75.929237 42.118370,75.929237 48.209724,76.369202 
	C47.752827,80.974495 47.351982,85.139832 46.964973,89.638016 
	C46.573917,90.693550 46.169029,91.416237 45.764137,92.138924 
z"/>
<path fill="#1A365F" opacity="1.000000" stroke="none" 
	d="
M148.397324,47.017300 
	C148.397385,42.563259 148.397385,38.605839 148.397385,34.435078 
	C152.984543,34.435078 157.085968,34.435078 161.704468,34.435078 
	C161.704468,51.322411 161.704468,68.214081 161.704468,85.559402 
	C170.941406,85.559402 179.685852,85.559402 188.702362,85.559402 
	C188.702362,89.602119 188.702362,93.197319 188.702362,97.143166 
	C175.435150,97.143166 162.077805,97.143166 148.397263,97.143166 
	C148.397263,80.423004 148.397263,63.968464 148.397324,47.017300 
z"/>
<path fill="#6FAAC8" opacity="1.000000" stroke="none" 
	d="
M29.067762,55.023102 
	C28.837488,55.003155 28.607214,54.983212 28.032183,54.921043 
	C23.477091,50.957710 19.350563,46.941429 15.034333,43.140579 
	C10.099291,38.794811 9.816936,35.766075 14.318640,31.149015 
	C16.631592,28.776794 18.973118,26.429033 21.377277,24.149910 
	C25.343351,20.390106 28.261353,20.381468 32.001133,24.321711 
	C36.557968,29.122807 40.957787,34.072929 45.774750,39.378189 
	C46.159351,39.987801 46.194725,40.177818 46.322865,40.544243 
	C46.601917,40.920162 46.813652,41.087524 47.031349,41.288815 
	C47.011868,41.354904 46.979263,41.488792 46.945702,41.982124 
	C47.281769,47.018879 47.651398,51.562305 47.559830,56.096863 
	C41.088345,55.733028 35.078053,55.378063 29.067762,55.023102 
z"/>
<path fill="#78AAB9" opacity="1.000000" stroke="none" 
	d="
M45.843193,92.555260 
	C46.169029,91.416237 46.573917,90.693550 47.317940,89.552391 
	C50.759724,86.047729 53.862362,82.961540 57.265640,80.035423 
	C61.338982,83.109200 65.111687,86.022896 68.884384,88.936592 
	C68.939240,96.730179 69.009354,104.523689 69.043076,112.317368 
	C69.062447,116.795052 66.828423,119.048203 62.312592,119.020554 
	C58.331535,118.996170 54.347988,119.101379 50.369564,118.996544 
	C45.583317,118.870422 43.433681,116.611473 43.834427,111.717537 
	C44.347332,105.453896 45.210190,99.218925 45.843193,92.555260 
z"/>
<path fill="#78AAB9" opacity="1.000000" stroke="none" 
	d="
M46.979263,41.488792 
	C46.979263,41.488792 47.011868,41.354904 46.941368,41.094494 
	C46.742920,40.560436 46.529331,40.405022 46.230103,40.367840 
	C46.194725,40.177818 46.159351,39.987801 46.097107,39.510571 
	C45.314850,32.976765 44.400101,26.744114 43.851986,20.479385 
	C43.370335,14.974217 45.412346,12.961193 50.993046,12.883389 
	C54.642815,12.832506 58.294964,12.817756 61.944099,12.887972 
	C67.146965,12.988088 69.005737,14.884271 69.042992,20.215965 
	C69.093994,27.516325 69.042366,34.817402 68.625526,42.581173 
	C64.156425,45.989185 60.096531,48.934196 55.975830,51.552032 
	C52.936436,47.979504 49.957848,44.734146 46.979263,41.488792 
z"/>
<path fill="#15315B" opacity="1.000000" stroke="none" 
	d="
M68.892815,64.009697 
	C68.936623,67.356003 68.980431,70.702316 68.655853,74.356934 
	C66.394958,72.257233 64.424301,71.742004 61.897739,73.970741 
	C60.475441,75.225388 58.645828,76.018280 56.754623,76.735535 
	C54.019272,75.956238 51.529007,75.460587 49.022022,74.604782 
	C48.976555,73.524200 48.947800,72.803772 48.946686,71.666473 
	C48.957935,67.808022 48.941547,64.366440 48.936298,60.531551 
	C48.954243,59.089424 48.961044,58.040596 49.336384,56.983879 
	C51.816986,55.658031 53.929047,54.340073 56.381760,53.054085 
	C58.470200,54.411442 60.217983,55.736832 62.085136,57.270931 
	C62.409988,57.742222 62.673672,57.917027 62.997704,58.002106 
	C62.999847,58.000153 62.994331,58.006363 63.028313,58.348881 
	C65.005806,60.464165 66.949310,62.236931 68.892815,64.009697 
z"/>
<path fill="#264369" opacity="1.000000" stroke="none" 
	d="
M285.284973,42.410255 
	C285.169098,42.736523 284.899597,42.713795 284.871948,42.619858 
	C282.042084,33.007298 274.136566,36.358334 267.769928,36.126270 
	C266.874847,36.093643 265.101440,38.069389 265.091614,39.128109 
	C264.924774,57.085148 264.916595,75.044823 265.119446,93.001129 
	C265.131012,94.025093 267.136078,95.652687 268.424835,95.900795 
	C270.828033,96.363457 273.386932,96.017517 276.329651,95.993622 
	C275.496948,96.503822 274.241394,97.387077 272.929077,97.481445 
	C269.823975,97.704727 266.691956,97.553177 263.377289,97.553177 
	C263.377289,76.240410 263.377289,55.504864 263.377289,34.164673 
	C269.182678,34.164673 274.925781,33.457527 280.317596,34.524811 
	C282.374298,34.931927 283.625793,39.406898 285.284973,42.410255 
z"/>
<path fill="#001A4E" opacity="1.000000" stroke="none" 
	d="
M388.279999,44.602066 
	C387.752899,44.486240 387.197113,43.971363 387.110962,43.387238 
	C386.021210,35.996147 386.038452,35.993362 378.457275,35.993572 
	C368.628418,35.993839 358.799500,36.007915 348.970703,35.984516 
	C346.837646,35.979439 344.977325,35.979885 344.993713,38.991566 
	C345.095306,57.645191 345.112122,76.299271 345.186920,94.953087 
	C345.188782,95.416077 345.535675,95.877686 345.883514,96.735435 
	C345.336121,96.571289 344.009735,96.014885 344.006775,95.451538 
	C343.900391,75.208054 343.917572,54.963909 343.917572,34.540897 
	C358.934418,34.540897 373.488953,34.540897 388.469574,34.540897 
	C388.469574,37.913937 388.469574,41.042389 388.279999,44.602066 
z"/>
<path fill="#416482" opacity="1.000000" stroke="none" 
	d="
M56.999710,77.019196 
	C58.645828,76.018280 60.475441,75.225388 61.897739,73.970741 
	C64.424301,71.742004 66.394958,72.257233 68.581314,74.804291 
	C68.924774,79.303520 68.974396,83.663712 68.954201,88.480255 
	C65.111687,86.022896 61.338982,83.109200 57.277451,79.679451 
	C56.992317,78.448662 56.996014,77.733932 56.999710,77.019196 
z"/>
<path fill="#274F81" opacity="1.000000" stroke="none" 
	d="
M61.965767,57.062218 
	C60.217983,55.736832 58.470200,54.411442 56.374329,52.768291 
	C56.029705,52.260094 56.033169,52.069653 56.036636,51.879208 
	C60.096531,48.934196 64.156425,45.989185 68.563194,43.049797 
	C68.946289,47.408234 68.982513,51.761047 68.738281,56.677753 
	C68.211502,57.443008 68.036034,57.693928 67.520126,57.995262 
	C65.737335,57.999538 64.365837,58.002953 62.994331,58.006363 
	C62.994331,58.006363 62.999847,58.000153 62.890060,57.782955 
	C62.574532,57.291553 62.303032,57.123707 61.965767,57.062218 
z"/>
<path fill="#052956" opacity="1.000000" stroke="none" 
	d="
M251.471039,74.759155 
	C250.861160,73.470352 250.071701,71.805916 250.050201,70.131622 
	C249.928726,60.671383 249.757263,51.200462 250.092804,41.750576 
	C250.254379,37.200211 248.952515,35.268078 244.305389,35.976669 
	C242.677582,36.224873 240.993607,36.104683 238.830399,36.231316 
	C238.325516,36.309914 238.357147,36.272511 238.553497,36.015930 
	C238.848419,35.345661 238.946991,34.931969 239.045563,34.518276 
	C243.154877,34.518276 247.264191,34.518276 251.646088,34.518276 
	C251.646088,47.888729 251.646088,61.133850 251.471039,74.759155 
z"/>
<path fill="#2E4A6E" opacity="1.000000" stroke="none" 
	d="
M332.016846,35.572945 
	C327.206970,35.980522 322.417755,35.713642 317.672455,36.055576 
	C315.824677,36.188717 314.075806,37.693878 311.914856,38.695972 
	C311.977753,35.396259 313.492004,33.605549 317.353119,34.076786 
	C322.224579,34.671333 327.151886,34.807777 332.016846,35.572945 
z"/>
<path fill="#002855" opacity="1.000000" stroke="none" 
	d="
M358.476379,71.019760 
	C361.559570,70.637794 365.102203,70.133324 368.655792,70.038353 
	C374.452637,69.883446 380.256653,69.995712 386.527710,70.226662 
	C386.997803,70.458084 387.000885,70.920288 387.000885,70.920288 
	C377.647491,70.973907 368.294098,71.027534 358.476379,71.019760 
z"/>
<path fill="#254266" opacity="1.000000" stroke="none" 
	d="
M63.028313,58.348881 
	C64.365837,58.002953 65.737335,57.999538 67.763138,58.001640 
	C68.417427,58.007153 68.901924,57.991001 68.901932,57.991001 
	C68.955917,59.714779 69.009911,61.438553 68.978363,63.586014 
	C66.949310,62.236931 65.005806,60.464165 63.028313,58.348881 
z"/>
<path fill="#264369" opacity="1.000000" stroke="none" 
	d="
M276.878784,54.761707 
	C276.373871,54.328823 276.066101,53.636181 275.758331,52.943535 
	C276.702698,53.095818 278.272583,52.967701 278.487457,53.447010 
	C279.664062,56.071709 280.508179,58.845459 281.228790,61.785595 
	C279.686005,59.502773 278.380981,57.002357 276.878784,54.761707 
z"/>
<path fill="#001A4E" opacity="1.000000" stroke="none" 
	d="
M387.379150,97.149078 
	C387.184204,94.884262 387.394196,92.628937 387.932434,90.115463 
	C388.101807,92.291061 387.942932,94.724823 387.379150,97.149078 
z"/>
<path fill="#264369" opacity="1.000000" stroke="none" 
	d="
M286.747620,45.712646 
	C286.224396,45.162437 285.675171,44.303535 285.208710,43.095181 
	C285.768188,43.631802 286.244904,44.517876 286.747620,45.712646 
z"/>
<path fill="#002152" opacity="1.000000" stroke="none" 
	d="
M330.320801,97.236443 
	C330.413300,96.775162 330.863556,96.414360 331.617859,96.031334 
	C331.507477,96.451714 331.093018,96.894310 330.320801,97.236443 
z"/>
<path fill="#1A355E" opacity="1.000000" stroke="none" 
	d="
M238.797699,34.446056 
	C238.946991,34.931969 238.848419,35.345661 238.535492,36.000263 
	C238.397385,35.618729 238.473618,34.996281 238.797699,34.446056 
z"/>
<path fill="#002152" opacity="1.000000" stroke="none" 
	d="
M318.846558,96.326073 
	C319.178131,96.189377 319.485596,96.408844 319.917023,96.888054 
	C319.634766,96.992607 319.228607,96.837425 318.846558,96.326073 
z"/>
<path fill="#001A4E" opacity="1.000000" stroke="none" 
	d="
M388.356537,87.787407 
	C388.124908,87.769478 387.989624,87.458549 388.047882,87.031281 
	C388.311890,87.108086 388.382385,87.301247 388.356537,87.787407 
z"/>
<path fill="#052956" opacity="1.000000" stroke="none" 
	d="
M250.978546,78.741852 
	C250.739014,78.808365 250.568222,78.646927 250.441483,78.456215 
	C250.417130,78.419594 250.565887,78.267944 250.798294,78.089088 
	C250.995392,78.173775 251.028992,78.338753 250.978546,78.741852 
z"/>
<path fill="#001B4F" opacity="1.000000" stroke="none" 
	d="
M387.284180,70.961182 
	C387.000885,70.920288 386.997803,70.458084 386.996033,70.226730 
	C386.994232,69.995369 387.444641,69.990913 387.669250,70.001328 
	C387.785065,70.341843 387.676270,70.671959 387.284180,70.961182 
z"/>
<path fill="#001B4F" opacity="1.000000" stroke="none" 
	d="
M387.910767,60.683372 
	C387.564789,60.886372 387.324219,60.693371 387.076538,60.180267 
	C387.304382,60.103046 387.619965,60.245445 387.910767,60.683372 
z"/>
<path fill="#15315B" opacity="1.000000" stroke="none" 
	d="
M68.958588,57.750648 
	C68.901924,57.991001 68.417427,58.007153 68.174416,58.000774 
	C68.036034,57.693928 68.211502,57.443008 68.665642,57.139431 
	C68.873466,57.037216 69.015244,57.510300 68.958588,57.750648 
z"/>
<path fill="#F9FAFB" opacity="1.000000" stroke="none" 
	d="
M107.064629,71.110336 
	C111.037735,71.122078 114.539352,70.931519 118.006561,71.194542 
	C122.802406,71.558357 125.471008,74.544899 125.346680,78.921623 
	C125.223488,83.257881 122.400337,85.871582 117.440758,85.962097 
	C111.816353,86.064743 106.188622,85.985794 100.202576,85.985794 
	C100.202576,81.058144 100.202576,76.369682 100.202576,71.110329 
	C102.363594,71.110329 104.470688,71.110329 107.064629,71.110336 
z"/>
<path fill="#F7F8FA" opacity="1.000000" stroke="none" 
	d="
M101.131783,45.880371 
	C106.451431,45.807182 111.285866,45.717339 116.116333,45.817886 
	C121.118523,45.922016 123.840294,48.196945 124.074623,52.206028 
	C124.314056,56.302284 120.704163,60.627647 116.407890,60.824806 
	C111.127251,61.067135 105.827026,60.882637 99.563118,60.882637 
	C99.946251,55.592686 100.295540,50.770020 101.131783,45.880371 
z"/>
<path fill="#416583" opacity="1.000000" stroke="none" 
	d="
M48.919044,72.083336 
	C48.947800,72.803772 48.976555,73.524200 48.939186,74.802147 
	C48.742138,75.625809 48.539707,75.815674 48.265774,75.929237 
	C42.118370,75.929237 35.970963,75.929237 29.674168,75.929237 
	C33.040527,73.091011 36.625698,70.068298 40.908081,67.034607 
	C44.043209,68.710197 46.481129,70.396767 48.919044,72.083336 
z"/>
<path fill="#285082" opacity="1.000000" stroke="none" 
	d="
M48.967842,56.991768 
	C48.961044,58.040596 48.954243,59.089424 48.578270,60.555248 
	C45.762985,62.332664 43.316875,63.693085 40.870762,65.053505 
	C37.017509,61.914722 33.164257,58.775944 29.189384,55.330132 
	C35.078053,55.378063 41.088345,55.733028 47.665306,56.293732 
	C48.428825,56.735958 48.674114,56.900059 48.967842,56.991768 
z"/>
<path fill="#274F80" opacity="1.000000" stroke="none" 
	d="
M48.209724,76.369202 
	C48.539707,75.815674 48.742138,75.625809 48.955902,75.162292 
	C51.529007,75.460587 54.019272,75.956238 56.754623,76.735535 
	C56.996014,77.733932 56.992317,78.448662 56.976810,79.519371 
	C53.862362,82.961540 50.759724,86.047729 47.304111,89.219543 
	C47.351982,85.139832 47.752827,80.974495 48.209724,76.369202 
z"/>
<path fill="#254164" opacity="1.000000" stroke="none" 
	d="
M40.912247,65.374268 
	C43.316875,63.693085 45.762985,62.332664 48.567127,60.948547 
	C48.941547,64.366440 48.957935,67.808022 48.946686,71.666473 
	C46.481129,70.396767 44.043209,68.710197 41.246040,67.004532 
	C40.909103,66.555305 40.931419,66.125168 40.912247,65.374268 
z"/>
<path fill="#416482" opacity="1.000000" stroke="none" 
	d="
M49.336380,56.983879 
	C48.674114,56.900059 48.428825,56.735958 48.126499,56.302601 
	C47.651398,51.562305 47.281769,47.018879 46.945702,41.982124 
	C49.957848,44.734146 52.936436,47.979504 55.975830,51.552032 
	C56.033169,52.069653 56.029705,52.260094 56.033672,52.736324 
	C53.929047,54.340073 51.816986,55.658031 49.336380,56.983879 
z"/>
<path fill="#416482" opacity="1.000000" stroke="none" 
	d="
M46.322865,40.544243 
	C46.529331,40.405022 46.742920,40.560436 46.960850,41.028404 
	C46.813652,41.087524 46.601917,40.920162 46.322865,40.544243 
z"/>
<path fill="#254266" opacity="1.000000" stroke="none" 
	d="
M62.085136,57.270931 
	C62.303032,57.123707 62.574532,57.291553 62.887917,57.784912 
	C62.673672,57.917027 62.409988,57.742222 62.085136,57.270931 
z"/>
</svg>